<svg xmlns="http://www.w3.org/2000/svg" fill="none" viewBox="0 0 281 124"><defs/><path fill="#5E72EB" d="M37.336 34.751L1.742 53.928a1.98 1.98 0 00-.804 2.682L12.29 77.694a1.98 1.98 0 002.681.805l35.593-19.177a1.98 1.98 0 00.805-2.683L40.017 35.555a1.98 1.98 0 00-2.681-.804z"/><path fill="#fff" d="M37.336 34.751L1.742 53.928a1.98 1.98 0 00-.804 2.682L12.29 77.694a1.98 1.98 0 002.681.805l35.593-19.177a1.98 1.98 0 00.805-2.683L40.017 35.555a1.98 1.98 0 00-2.681-.804z" opacity=".7"/><path fill="#002A44" d="M40.956 37.298L29.82 58.1a4.543 4.543 0 01-4.451 2.378L2.192 58.184l23.593 3.475a4.836 4.836 0 005.088-2.741l10.083-21.62z" opacity=".2"/><path fill="#5E72EB" d="M67.987 33.423c-.379-7.955-6.265-23.985-13.428-28.888-7.163-4.902-2.45 1.886-2.45 1.886S45.321-.179 41.74.01c-3.581.189 0 4.337 0 4.337S34.39-.187 30.997.006c-3.393.192 0 4.152 0 4.152s-6.032-4.337-8.482-2.262c-2.45 2.074 31.29 24.324 35.06 33.375 3.77 9.051 10.795 6.204 10.412-1.848z"/><path fill="#fff" d="M67.987 33.423c-.379-7.955-6.265-23.985-13.428-28.888-7.163-4.902-2.45 1.886-2.45 1.886S45.321-.179 41.74.01c-3.581.189 0 4.337 0 4.337S34.39-.187 30.997.006c-3.393.192 0 4.152 0 4.152s-6.032-4.337-8.482-2.262c-2.45 2.074 31.29 24.324 35.06 33.375 3.77 9.051 10.795 6.204 10.412-1.848z" opacity=".4"/><path fill="#5E72EB" d="M39.008 32.248L34.5 35.136a.371.371 0 00.229.681l4.735-.368-.407 3.635a.406.406 0 00.708.314l2.73-3.093-3.487-4.057z"/><path fill="#fff" d="M39.008 32.248L34.5 35.136a.371.371 0 00.229.681l4.735-.368-.407 3.635a.406.406 0 00.708.314l2.73-3.093-3.487-4.057z" opacity=".3"/><path fill="#5E72EB" d="M102.248 14.344s-6.22-4.34-15.645-1.512c0 0-2.71 12.445-10.12 16.594-4.07 2.278-14.04 2.083-21.924-.471-9.364-3.034-13.949-3.034-15.645.47-1.607 3.32.188 7.166 7.35 8.863 7.164 1.698 12.819 14.143 25.825 14.331 13.006.189 19.852-12.857 16.588-24.325a34.521 34.521 0 0113.571-13.95z"/><path fill="#fff" d="M102.248 14.344s-6.22-4.34-15.645-1.512c0 0-2.71 12.445-10.12 16.594-4.07 2.278-14.04 2.083-21.924-.471-9.364-3.034-13.949-3.034-15.645.47-1.607 3.32.188 7.166 7.35 8.863 7.164 1.698 12.819 14.143 25.825 14.331 13.006.189 19.852-12.857 16.588-24.325a34.521 34.521 0 0113.571-13.95z" opacity=".5"/><path fill="#002A44" d="M42.495 31.783a.636.636 0 101.272 0 .636.636 0 00-1.272 0z"/><path fill="#5E72EB" d="M75.107 42.256c7.681 2.095 24.74 1.442 31.612-3.86 6.873-5.303-1.036-2.914-1.036-2.914s8.369-4.42 9.296-7.886c.926-3.466-4.124-1.338-4.124-1.338s6.58-5.596 7.444-8.884c.864-3.288-3.948-1.281-3.948-1.281s5.985-4.401 4.769-7.373c-1.216-2.972-32.787 22.265-42.556 23.058-9.77.794-9.231 8.357-1.457 10.478z"/><path fill="#fff" d="M75.107 42.256c7.681 2.095 24.74 1.442 31.612-3.86 6.873-5.303-1.036-2.914-1.036-2.914s8.369-4.42 9.296-7.886c.926-3.466-4.124-1.338-4.124-1.338s6.58-5.596 7.444-8.884c.864-3.288-3.948-1.281-3.948-1.281s5.985-4.401 4.769-7.373c-1.216-2.972-32.787 22.265-42.556 23.058-9.77.794-9.231 8.357-1.457 10.478z" opacity=".4"/><path stroke="#5E72EB" stroke-linecap="round" stroke-linejoin="round" stroke-width=".75" d="M125.42 6.936a89.171 89.171 0 014.073-1.341"/><path stroke="#5E72EB" stroke-dasharray="6.03 6.03" stroke-linecap="round" stroke-linejoin="round" stroke-width=".75" d="M137.85 3.463c5-1.04 10.066-1.735 15.161-2.083 13.899-.968 35.687-2.345 44.2 11.51 7.758 12.624-5.589 34.165-10.327 45.886-5.802 14.356-12.701 32.107-5.844 47.305 14.088 31.228 74.396 15.012 94.739-13.75"/><path stroke="#5E72EB" stroke-linecap="round" stroke-linejoin="round" stroke-width=".75" d="M278.093 88.7A37.635 37.635 0 00280 84.86"/></svg>