<svg width="65" height="20" viewBox="0 0 65 20" fill="none" xmlns="http://www.w3.org/2000/svg">
<path fill-rule="evenodd" clip-rule="evenodd" d="M65 10L64.9995 11L64.999 11.4142L64.9975 11.7319L64.996 11.9998L64.9934 12.2356L64.9909 12.4487L64.9874 12.6447L64.9834 12.8269L64.9793 12.9979L64.9743 13.1596L64.9688 13.3133L64.9627 13.46L64.9562 13.6004L64.9496 13.7355L64.9421 13.8657L64.934 13.9915L64.9254 14.1132L64.9164 14.2312L64.9068 14.3458L64.8967 14.4572L64.8861 14.5658L64.875 14.6715L64.8634 14.7747L64.8509 14.8755L64.8383 14.974L64.8252 15.0703L64.8116 15.1646L64.7969 15.257L64.7823 15.3475L64.7672 15.4362L64.7511 15.5232L64.735 15.6086L64.7178 15.6925L64.7002 15.7748L64.6826 15.8558L64.6639 15.9353L64.6448 16.0135L64.6251 16.0903L64.605 16.166L64.5843 16.2404L64.5631 16.3136L64.5415 16.3856L64.5193 16.4566L64.4966 16.5264L64.4729 16.5952L64.4493 16.663L64.4246 16.7297L64.3999 16.7955L64.3742 16.8602L64.348 16.924L64.3213 16.9869L64.2941 17.049L64.2664 17.1101L64.2381 17.1703L64.2089 17.2297L64.1797 17.2882L64.1495 17.3459L64.1187 17.4028L64.0875 17.459L64.0557 17.5142L64.0235 17.5688L63.9907 17.6225L63.957 17.6756L63.9232 17.7278L63.8885 17.7794L63.8532 17.8302L63.8174 17.8803L63.7806 17.9296L63.7438 17.9783L63.706 18.0263L63.6678 18.0736L63.629 18.1203L63.5891 18.1662L63.5488 18.2115L63.5085 18.2561L63.4667 18.3001L63.4249 18.3435L63.3821 18.3862L63.3387 18.4282L63.2949 18.4697L63.25 18.5105L63.2047 18.5507L63.1588 18.5903L63.112 18.6292L63.0646 18.6677L63.0167 18.7054L62.9679 18.7426L62.9185 18.7792L62.8686 18.8151L62.8177 18.8506L62.7658 18.8854L62.7134 18.9196L62.6605 18.9533L62.6066 18.9865L62.5522 19.0189L62.4967 19.0509L62.4403 19.0823L62.3834 19.1131L62.3254 19.1434L62.267 19.1732L62.2075 19.2024L62.1471 19.2309L62.0861 19.2591L62.0241 19.2866L61.9611 19.3136L61.8971 19.34L61.8321 19.3659L61.7666 19.3913L61.6996 19.4161L61.6321 19.4404L61.5631 19.4641L61.4935 19.4874L61.4225 19.51L61.3504 19.5322L61.2774 19.5539L61.2033 19.575L61.1277 19.5956L61.0511 19.6157L60.9735 19.6352L60.8939 19.6542L60.8138 19.6728L60.7317 19.6907L60.6485 19.7082L60.5634 19.7251L60.4772 19.7416L60.389 19.7575L60.2993 19.7729L60.2081 19.7878L60.1149 19.8022L60.0197 19.8161L59.9229 19.8295L59.8237 19.8424L59.7219 19.8547L59.6181 19.8666L59.5123 19.8778L59.4035 19.8887L59.2916 19.899L59.1767 19.9088L59.0588 19.9181L58.9374 19.927L58.8124 19.9353L58.6829 19.9431L58.5489 19.9504L58.4098 19.9572L58.2657 19.9635L58.1145 19.9693L57.9568 19.9746L57.791 19.9794L57.6152 19.9837L57.4283 19.9874L57.2272 19.9907L57.009 19.9935L56.7682 19.9958L56.4946 19.9977L56.1721 19.9989L55.7564 19.9997L49.9087 20L48.628 19.9998L48.1882 19.9991L47.8549 19.9979L47.5754 19.9961L47.3299 19.9939L47.1084 19.9912L46.9051 19.9881L46.7161 19.9843L46.5388 19.9801L46.3713 19.9754L46.2122 19.9701L46.0604 19.9645L45.9149 19.9583L45.7752 19.9515L45.6405 19.9443L45.5104 19.9366L45.3846 19.9284L45.2626 19.9196L45.1441 19.9104L45.0289 19.9007L44.9167 19.8904L44.8074 19.8797L44.7008 19.8683L44.5966 19.8566L44.4948 19.8444L44.3953 19.8316L44.2979 19.8183L44.2024 19.8044L44.1089 19.7901L44.0172 19.7754L43.9274 19.76L43.8391 19.7442L43.7525 19.7278L43.6674 19.7109L43.5838 19.6936L43.5017 19.6756L43.4209 19.6572L43.3415 19.6383L43.2634 19.6188L43.1866 19.5988L43.111 19.5783L43.0366 19.5572L42.9633 19.5357L42.8911 19.5137L42.8201 19.491L42.7501 19.4678L42.6812 19.4442L42.6133 19.42L42.5464 19.3953L42.4804 19.37L42.4155 19.3442L42.3514 19.3178L42.2883 19.2909L42.2261 19.2635L42.1648 19.2355L42.1043 19.2069L42.0447 19.1779L41.986 19.1482L41.928 19.118L41.8709 19.0872L41.8146 19.056L41.7591 19.0241L41.7044 18.9916L41.6504 18.9587L41.5972 18.9251L41.5447 18.8909L41.493 18.8561L41.442 18.8209L41.3917 18.785L41.3421 18.7484L41.2933 18.7114L41.2451 18.6737L41.1977 18.6354L41.1509 18.5965L41.1048 18.5571L41.0594 18.517L41.0146 18.4762L40.9705 18.4349L40.9271 18.3929L40.8842 18.3503L40.8421 18.3071L40.8006 18.2632L40.7597 18.2187L40.7194 18.1735L40.6798 18.1276L40.6408 18.0811L40.6024 18.0339L40.5646 17.986L40.5274 17.9375L40.4909 17.8882L40.4549 17.8382L40.4195 17.7875L40.3848 17.7361L40.3505 17.684L40.3169 17.6311L40.2839 17.5774L40.2515 17.523L40.2196 17.4678L40.1883 17.4118L40.1577 17.3551L40.1275 17.2975L40.0979 17.2391L40.0689 17.1798L40.0405 17.1197L40.0126 17.0588L39.9853 16.9969L39.9585 16.9342L39.9323 16.8704L39.9067 16.8058L39.8816 16.7402L39.857 16.6737L39.833 16.6061L39.8095 16.5375L39.7867 16.4678L39.7643 16.397L39.7425 16.3251L39.7211 16.2521L39.7004 16.1779L39.6802 16.1024L39.6605 16.0258L39.6414 15.9478L39.6228 15.8685L39.6048 15.7878L39.5872 15.7057L39.5702 15.6221L39.5538 15.5369L39.5378 15.4501L39.5224 15.3617L39.5075 15.2715L39.4931 15.1795L39.4793 15.0855L39.466 14.9895L39.4532 14.8913L39.4409 14.7909L39.4292 14.6881L39.418 14.5828L39.4073 14.4747L39.3971 14.3638L39.3875 14.2497L39.3784 14.1322L39.3697 14.0111L39.3616 13.8861L39.3541 13.7566L39.347 13.6223L39.3405 13.4827L39.3345 13.3371L39.3289 13.1846L39.3239 13.0243L39.3195 12.8548L39.3155 12.6746L39.3121 12.481L39.3092 12.2709L39.3068 12.0392L39.3049 11.7773L39.3035 11.4694L39.3027 11.0766L39.3023 10.399L39.3025 9.0831L39.3032 8.6433L39.3044 8.31465L39.3061 8.04045L39.3084 7.80025L39.3111 7.5839L39.3144 7.38555L39.3182 7.2013L39.3225 7.0286L39.3273 6.86555L39.3327 6.7107L39.3385 6.56295L39.3449 6.4215L39.3518 6.2856L39.3592 6.1547L39.3671 6.02825L39.3755 5.90595L39.3845 5.78735L39.394 5.67225L39.404 5.5603L39.4145 5.45135L39.4256 5.34515L39.4372 5.24155L39.4493 5.1404L39.4619 5.04155L39.475 4.94488L39.4887 4.85027L39.5029 4.75762L39.5176 4.66683L39.5328 4.57783L39.5486 4.49053L39.5649 4.40486L39.5817 4.32077L39.5991 4.23817L39.617 4.15703L39.6354 4.07729L39.6544 3.9989L39.6739 3.92182L39.6939 3.84601L39.7145 3.77142L39.7356 3.69802L39.7573 3.62578L39.7794 3.55466L39.8022 3.48464L39.8255 3.41568L39.8493 3.34776L39.8737 3.28087L39.8986 3.21496L39.9241 3.15002L39.9501 3.08604L39.9767 3.02298L40.0038 2.96083L40.0315 2.89957L40.0598 2.8392L40.0886 2.77968L40.118 2.721L40.148 2.66316L40.1785 2.60613L40.2096 2.54991L40.2413 2.49447L40.2735 2.43982L40.3063 2.38594L40.3398 2.3328L40.3738 2.28042L40.4084 2.22878L40.4436 2.17786L40.4793 2.12765L40.5157 2.07816L40.5527 2.02937L40.5903 1.98126L40.6285 1.93386L40.6673 1.88712L40.7067 1.84106L40.7468 1.79566L40.7875 1.75091L40.8288 1.70682L40.8707 1.66338L40.9134 1.62057L40.9566 1.5784L41.0005 1.53686L41.045 1.49594L41.0903 1.45564L41.1361 1.41596L41.1827 1.37689L41.23 1.33842L41.2779 1.30054L41.3265 1.26328L41.3758 1.2266L41.4259 1.19052L41.4767 1.15501L41.5281 1.12009L41.5803 1.08575L41.6334 1.05199L41.6871 1.0188L41.7416 0.986175L41.7969 0.95412L41.8529 0.92263L41.9098 0.8917L41.9674 0.861325L42.0259 0.83151L42.0853 0.80225L42.1454 0.77354L42.2065 0.745375L42.2684 0.71776L42.3312 0.69069L42.395 0.664165L42.4597 0.638175L42.5253 0.61273L42.5919 0.587815L42.6594 0.56344L42.728 0.5396L42.7977 0.51629L42.8684 0.493506L42.9402 0.471254L43.0131 0.449529L43.0871 0.428331L43.1624 0.407656L43.2388 0.387504L43.3165 0.367874L43.3955 0.348765L43.4758 0.330175L43.5575 0.312102L43.6406 0.294548L43.7252 0.27751L43.8113 0.260986L43.899 0.244977L43.9884 0.229481L44.0795 0.214496L44.1724 0.200024L44.2672 0.186062L44.364 0.172611L44.4629 0.159668L44.5639 0.147234L44.6673 0.135307L44.7732 0.123887L44.8816 0.112973L44.9928 0.102566L45.107 0.092664L45.2244 0.0832665L45.3453 0.0743735L45.4699 0.0659845L45.5986 0.0580985L45.7317 0.0507155L45.8698 0.0438351L46.0134 0.0374569L46.1631 0.0315806L46.3198 0.026206L46.4844 0.0213326L46.6584 0.0169604L46.8434 0.013089L47.0419 0.0097183L47.2571 0.00684805L47.4941 0.00447814L47.7613 0.00260847L48.0742 0.00123893L48.4694 0.000369452L49.1134 0L55.5846 0.000130552L56.0537 0.000761115L56.3988 0.00189171L56.685 0.00352241L56.935 0.0056533L57.1602 0.00828445L57.3658 0.011416L57.5572 0.0150482L57.7361 0.0191811L57.9049 0.023815L58.0652 0.0289501L58.2183 0.0345866L58.3645 0.040725L58.505 0.0473653L58.6406 0.054508L58.7716 0.0621535L58.8981 0.0703025L59.0205 0.0789545L59.1394 0.088111L59.2553 0.097772L59.3682 0.107938L59.4775 0.11861L59.5848 0.129787L59.6891 0.141472L59.7914 0.153663L59.8912 0.166363L59.989 0.179571L60.0847 0.19329L60.1784 0.207518L60.2706 0.222257L60.3608 0.237509L60.4495 0.253273L60.5362 0.269551L60.6213 0.286343L60.7055 0.30365L60.7876 0.321475L60.8687 0.339817L60.9483 0.358678L61.0264 0.37806L61.1035 0.397962L61.1796 0.418386L61.2542 0.439335L61.3272 0.460809L61.3998 0.482809L61.4709 0.505335L61.5409 0.528395L61.6104 0.551985L61.6784 0.576105L61.7455 0.60076L61.8115 0.62595L61.8765 0.65168L61.941 0.67795L62.004 0.70476L62.0664 0.732115L62.1279 0.760015L62.1884 0.788465L62.2483 0.81746L62.3073 0.84701L62.3652 0.877115L62.4222 0.90778L62.4786 0.939005L62.5345 0.97079L62.5895 1.00314L62.6434 1.03606L62.6968 1.06955L62.7492 1.10362L62.8011 1.13826L62.8525 1.17348L62.9029 1.20929L62.9522 1.24568L63.0011 1.28267L63.0495 1.32025L63.0974 1.35843L63.1442 1.39721L63.1901 1.4366L63.2359 1.47661L63.2808 1.51723L63.3246 1.55848L63.3685 1.60034L63.4113 1.64285L63.4536 1.68598L63.4949 1.72977L63.5362 1.77419L63.5766 1.81928L63.6164 1.86503L63.6552 1.91144L63.694 1.95853L63.7317 2.0063L63.769 2.05476L63.8058 2.10391L63.8416 2.15378L63.8774 2.20436L63.9121 2.25565L63.9464 2.30768L63.9802 2.36046L64.0134 2.41398L64.0457 2.46827L64.0779 2.52332L64.1091 2.57917L64.1399 2.63581L64.1701 2.69326L64.1998 2.75154L64.2286 2.81065L64.2573 2.87062L64.2855 2.93145L64.3127 2.99317L64.3394 3.05579L64.3661 3.11933L64.3918 3.18382L64.417 3.24925L64.4412 3.31568L64.4654 3.38311L64.4891 3.45156L64.5122 3.52107L64.5344 3.59166L64.5566 3.66336L64.5778 3.7362L64.5984 3.81022L64.6191 3.88545L64.6387 3.96192L64.6579 4.03968L64.6765 4.11876L64.6946 4.19923L64.7123 4.28112L64.7294 4.36449L64.746 4.4494L64.7622 4.53591L64.7773 4.62409L64.7924 4.71402L64.807 4.80576L64.8206 4.89943L64.8342 4.9951L64.8473 5.0929L64.8594 5.19295L64.8715 5.29535L64.8826 5.40025L64.8932 5.5079L64.9038 5.61835L64.9133 5.73195L64.9224 5.84885L64.9315 5.96935L64.9395 6.09375L64.9471 6.22245L64.9541 6.35595L64.9607 6.49465L64.9668 6.6393L64.9723 6.7906L64.9778 6.94955L64.9824 7.11745L64.9864 7.2959L64.9899 7.48715L64.9929 7.69435L64.995 7.9222L64.997 8.1785L64.9985 8.4774L64.9995 8.85175L65 9.4356V10ZM49.8837 15.5H53.9147C57.7336 15.5 59.9612 13.1428 59.9612 9.96855C59.9612 6.76285 57.7638 4.5 53.9752 4.5H49.8837V15.5ZM47.8682 15.5H44.845V4.5H47.8682V15.5ZM11.0623 10C11.0623 13.0338 8.84675 15.75 5.51548 15.75C2.18419 15.75 0 13.0656 0 10C0 6.96615 2.21562 4.25 5.54692 4.25C8.87819 4.25 11.0623 6.9344 11.0623 10ZM0.848532 10C0.848532 12.7479 2.82845 15.0035 5.54692 15.0035C8.26533 15.0035 10.2138 12.7797 10.2138 10C10.2138 7.25205 8.23394 4.99654 5.51548 4.99654C2.79702 4.99654 0.848532 7.2203 0.848532 10ZM14.8879 15.5H14.1085V4.5H14.8723L22.401 14.07V4.5H23.1804V15.5H22.5724L14.8879 5.7257V15.5ZM34.2636 15.5H26.4232V4.5H34.1856V5.2543H27.2337V9.5757H33.4842V10.33H27.2337V14.7457H34.2636V15.5ZM54.5184 13.5723C54.8157 13.5638 55.1543 13.5252 55.4989 13.4387C55.5402 13.4285 55.5821 13.4176 55.6254 13.4057C55.8914 13.3324 56.1797 13.2247 56.4759 13.0442C56.5485 13.0013 56.619 12.9553 56.6886 12.9059L56.686 12.9049C56.8972 12.7526 57.1108 12.5598 57.3229 12.3135C57.4096 12.2125 57.5593 11.9989 57.6439 11.8332C57.4479 11.627 57.1496 11.4573 56.87 11.3082L56.8402 11.2922C56.7107 11.2229 56.4759 11.0975 56.2572 11.0125C56.2341 11.0035 56.2094 10.9946 56.1847 10.9855C55.9957 10.9164 55.7745 10.8355 55.7524 10.6126C55.7352 10.4407 55.8229 10.3333 55.9277 10.2053C55.9529 10.1746 55.9791 10.1427 56.0048 10.1083C56.3102 9.7037 56.5974 9.15175 56.5455 8.4045C56.4946 7.671 56.0214 7.1014 55.2298 7.0135C55.1381 7.00335 55.049 6.99895 54.9623 7.0002C54.8756 6.99895 54.7859 7.00335 54.6942 7.0135C53.9026 7.1014 53.4295 7.671 53.3786 8.4045C53.3267 9.15175 53.6139 9.7037 53.9193 10.1083C53.9455 10.1427 53.9712 10.1746 53.9964 10.2053C54.1012 10.3333 54.1888 10.4407 54.1717 10.6126C54.1495 10.8355 53.9283 10.9164 53.7394 10.9855V10.9855C53.7147 10.9946 53.6905 11.0035 53.6673 11.0125C53.4481 11.0975 53.2138 11.2229 53.0838 11.2922L53.0541 11.3082C52.6389 11.5295 52.1834 11.7958 52.0811 12.1601C51.9557 12.6057 51.8881 13.1651 51.9007 13.5723H52.6097C52.8072 13.5723 53.0103 13.5742 53.2174 13.5763H53.2179C53.6431 13.5805 54.0835 13.5847 54.5184 13.5723Z" fill="#4364CC"/>
</svg>
