<svg xmlns="http://www.w3.org/2000/svg" fill="none" viewBox="0 0 32 32"><defs/><circle cx="16" cy="16" r="16" fill="#115E8C"/><path fill="#fff" d="M15.042 18.328c-.396-.431-.594-.96-.594-1.584 0-.48.138-.912.414-1.296.276-.383.576-.671.9-.864.324-.191.624-.42.9-.684.276-.264.414-.527.414-.792 0-.3-.12-.546-.36-.738-.228-.191-.576-.287-1.044-.287-.852 0-1.59.371-2.214 1.115L12 11.56c.996-1.164 2.31-1.746 3.942-1.746 1.152 0 2.064.264 2.736.793.672.516 1.008 1.2 1.008 2.052 0 .48-.102.911-.306 1.295a2.95 2.95 0 01-.756.936c-.288.24-.582.462-.882.666-.3.205-.552.427-.756.667-.204.24-.306.498-.306.774 0 .311.108.564.324.756l-1.962.575zm1.89 3.439c-.288.288-.63.431-1.026.431s-.738-.143-1.026-.431a1.402 1.402 0 01-.432-1.026c0-.396.144-.738.432-1.026.288-.288.63-.433 1.026-.433s.738.145 1.026.433c.288.288.432.63.432 1.026s-.144.738-.432 1.026z"/></svg>